<svg width="90" height="68" viewBox="0 0 112 108" fill="none" xmlns="http://www.w3.org/2000/svg">
<path d="M56.617 104.12C54.217 104.504 51.577 104.936 48.697 105.416C45.817 105.896 43.225 106.328 40.921 106.712C41.305 103.544 41.689 100.424 42.073 97.352C42.361 94.664 42.601 91.976 42.793 89.288C43.081 86.6 43.321 84.296 43.513 82.376H30.985L25.225 103.112C23.113 103.4 20.617 103.736 17.737 104.12C14.857 104.408 12.169 104.696 9.673 104.984C6.601 105.368 3.577 105.752 0.601 106.136C4.441 93.368 8.233 80.792 11.977 68.408C13.513 63.224 15.097 57.8 16.729 52.136C18.457 46.472 20.137 40.856 21.769 35.288C23.497 29.624 25.129 24.2 26.665 19.016C28.201 13.832 29.545 9.08 30.697 4.75999C37.225 4.27999 43.849 3.70399 50.569 3.03199C57.385 2.35999 64.009 1.44799 70.441 0.295992C70.153 3.36799 69.817 7.20799 69.433 11.816C69.145 16.328 68.857 21.272 68.569 26.648C68.281 32.024 67.993 37.64 67.705 43.496C67.417 49.352 67.129 55.112 66.841 60.776C66.361 74.024 65.833 88.088 65.257 102.968C62.377 103.448 59.497 103.832 56.617 104.12ZM34.441 67.976C34.825 67.976 35.497 67.976 36.457 67.976C37.513 67.88 38.569 67.832 39.625 67.832C40.777 67.736 41.833 67.688 42.793 67.688C43.753 67.592 44.425 67.496 44.809 67.4C44.809 66.824 44.857 65.864 44.953 64.52C45.145 63.08 45.289 61.496 45.385 59.768C45.577 57.944 45.769 55.976 45.961 53.864C46.153 51.752 46.345 49.688 46.537 47.672C46.921 42.776 47.401 37.496 47.977 31.832L48.841 19.304L46.681 19.448L43.369 31.832L34.441 67.976ZM105.666 102.392C102.69 102.392 99.5219 102.488 96.1619 102.68C92.8979 102.872 89.5859 103.16 86.2259 103.544C82.8659 103.928 79.5539 104.456 76.2899 105.128C73.1219 105.704 70.2419 106.424 67.6499 107.288C68.2259 102.968 68.8979 98.168 69.6659 92.888C70.4339 87.608 71.2979 82.136 72.2579 76.472C73.3139 70.808 74.3219 65.096 75.2819 59.336C76.3379 53.576 77.3939 48.056 78.4499 42.776C80.8499 30.2 83.3939 17.384 86.0819 4.32799L111.282 1.01599C108.69 12.152 106.194 23 103.794 33.56C102.738 38.072 101.682 42.776 100.626 47.672C99.5699 52.472 98.5619 57.176 97.6019 61.784C96.6419 66.392 95.7779 70.856 95.0099 75.176C94.2419 79.496 93.6179 83.336 93.1379 86.696C95.5379 86.504 98.0819 86.408 100.77 86.408C103.554 86.312 106.002 86.264 108.114 86.264C108.21 88.088 108.354 89.912 108.546 91.736C108.738 93.464 108.93 95.048 109.122 96.488C109.41 97.928 109.602 99.224 109.698 100.376C109.89 101.432 110.034 102.152 110.13 102.536C109.362 102.536 108.594 102.536 107.826 102.536C107.154 102.44 106.434 102.392 105.666 102.392Z" fill="#E62626"/>
</svg>
